<svg width="148" height="149" viewBox="0 0 148 149" fill="none" xmlns="http://www.w3.org/2000/svg">
<path d="M40.8032 18.2543C44.1921 7.39518 54.2469 0 65.6226 0H84.5679C96.0912 0 106.24 7.58496 109.503 18.6365L138.148 115.636C143.067 132.295 130.582 149 113.212 149H35.3508C17.8143 149 5.30707 131.995 10.5314 115.254L40.8032 18.2543Z" fill="url(#paint0_linear_24_3)"/>
<path d="M42.1699 35.827C46.2232 22.2804 58.6869 13 72.8269 13H79.2523C93.8259 13 106.559 22.8471 110.224 36.9523L126.594 99.9523C131.86 120.22 116.563 140 95.6224 140H53.9765C32.5506 140 17.1776 119.354 23.3195 98.827L42.1699 35.827Z" fill="#629A02" fill-opacity="0.57"/>
<defs>
<linearGradient id="paint0_linear_24_3" x1="114.5" y1="29.5" x2="16" y2="132.5" gradientUnits="userSpaceOnUse">
<stop stop-color="#D2FF84"/>
<stop offset="1" stop-color="#46650E"/>
</linearGradient>
</defs>
</svg>
